solid car
  facet normal  1.000000e+000  0.000000e+000  0.000000e+000
    outer loop
      vertex -3.000000e+001 -5.264043e+001 -1.292732e+001
      vertex -3.000000e+001  2.909151e+001 -1.292732e+001
      vertex -3.000000e+001 -1.209085e+002 -8.823403e+000
    endloop
  endfacet
  facet normal  1.000000e+000  -0.000000e+000  0.000000e+000
    outer loop
      vertex -3.000000e+001 -1.209085e+002  2.154553e+001
      vertex -3.000000e+001 -1.209085e+002 -8.823403e+000
      vertex -3.000000e+001  2.909151e+001 -1.292732e+001
    endloop
  endfacet
  facet normal  1.000000e+000  0.000000e+000  -0.000000e+000
    outer loop
      vertex -3.000000e+001 -1.209085e+002  2.154553e+001
      vertex -3.000000e+001  2.909151e+001 -1.292732e+001
      vertex -3.000000e+001  2.909151e+001  2.154553e+001
    endloop
  endfacet
  facet normal  1.000000e+000  0.000000e+000  0.000000e+000
    outer loop
      vertex -3.000000e+001 -1.209085e+002  2.154553e+001
      vertex -3.000000e+001  2.909151e+001  2.154553e+001
      vertex -3.000000e+001  1.311344e+001  2.337124e+001
    endloop
  endfacet
  facet normal  1.000000e+000  0.000000e+000  0.000000e+000
    outer loop
      vertex -3.000000e+001 -1.209085e+002  2.154553e+001
      vertex -3.000000e+001  1.311344e+001  2.337124e+001
      vertex -3.000000e+001  7.563957e+000  2.462670e+001
    endloop
  endfacet
  facet normal  1.000000e+000  0.000000e+000  0.000000e+000
    outer loop
      vertex -3.000000e+001 -1.209085e+002  2.154553e+001
      vertex -3.000000e+001  7.563957e+000  2.462670e+001
      vertex -3.000000e+001  2.415965e+000  2.704974e+001
    endloop
  endfacet
  facet normal  1.000000e+000  0.000000e+000  0.000000e+000
    outer loop
      vertex -3.000000e+001 -1.209085e+002  2.154553e+001
      vertex -3.000000e+001  2.415965e+000  2.704974e+001
      vertex -3.000000e+001 -2.088119e+000  3.052626e+001
    endloop
  endfacet
  facet normal  1.000000e+000  0.000000e+000  0.000000e+000
    outer loop
      vertex -3.000000e+001 -1.209085e+002  2.154553e+001
      vertex -3.000000e+001 -2.088119e+000  3.052626e+001
      vertex -3.000000e+001 -5.736197e+000  3.489255e+001
    endloop
  endfacet
  facet normal  1.000000e+000  0.000000e+000  0.000000e+000
    outer loop
      vertex -3.000000e+001 -1.209085e+002  2.154553e+001
      vertex -3.000000e+001 -5.736197e+000  3.489255e+001
      vertex -3.000000e+001 -8.356483e+000  3.994300e+001
    endloop
  endfacet
  facet normal  1.000000e+000  0.000000e+000  0.000000e+000
    outer loop
      vertex -3.000000e+001 -1.209085e+002  2.154553e+001
      vertex -3.000000e+001 -8.356483e+000  3.994300e+001
      vertex -3.000000e+001 -9.825588e+000  4.543979e+001
    endloop
  endfacet
  facet normal  1.000000e+000  0.000000e+000  0.000000e+000
    outer loop
      vertex -3.000000e+001 -1.209085e+002  2.154553e+001
      vertex -3.000000e+001 -9.825588e+000  4.543979e+001
      vertex -3.000000e+001 -1.007433e+001  5.112407e+001
    endloop
  endfacet
  facet normal  1.000000e+000  0.000000e+000  -0.000000e+000
    outer loop
      vertex -3.000000e+001 -1.209085e+002  2.154553e+001
      vertex -3.000000e+001 -1.007433e+001  5.112407e+001
      vertex -3.000000e+001 -9.091002e+000  5.672818e+001
    endloop
  endfacet
  facet normal  1.000000e+000  0.000000e+000  0.000000e+000
    outer loop
      vertex -3.000000e+001 -1.209085e+002  2.154553e+001
      vertex -3.000000e+001 -9.091002e+000  5.672818e+001
      vertex -3.000000e+001 -7.402560e+001  5.672818e+001
    endloop
  endfacet
  facet normal -1.000000e+000  0.000000e+000  0.000000e+000
    outer loop
      vertex  3.000000e+001 -1.209085e+002 -8.823403e+000
      vertex  3.000000e+001  2.909151e+001 -1.292732e+001
      vertex  3.000000e+001 -5.264043e+001 -1.292732e+001
    endloop
  endfacet
  facet normal -1.000000e+000  0.000000e+000  -0.000000e+000
    outer loop
      vertex  3.000000e+001 -1.209085e+002  2.154553e+001
      vertex  3.000000e+001 -7.402560e+001  5.672818e+001
      vertex  3.000000e+001 -9.091002e+000  5.672818e+001
    endloop
  endfacet
  facet normal -1.000000e+000  0.000000e+000  0.000000e+000
    outer loop
      vertex  3.000000e+001 -1.209085e+002  2.154553e+001
      vertex  3.000000e+001 -9.091002e+000  5.672818e+001
      vertex  3.000000e+001 -1.007433e+001  5.112407e+001
    endloop
  endfacet
  facet normal -1.000000e+000  0.000000e+000  -0.000000e+000
    outer loop
      vertex  3.000000e+001 -1.209085e+002  2.154553e+001
      vertex  3.000000e+001 -1.007433e+001  5.112407e+001
      vertex  3.000000e+001 -9.825588e+000  4.543979e+001
    endloop
  endfacet
  facet normal -1.000000e+000  0.000000e+000  -0.000000e+000
    outer loop
      vertex  3.000000e+001 -1.209085e+002  2.154553e+001
      vertex  3.000000e+001 -9.825588e+000  4.543979e+001
      vertex  3.000000e+001 -8.356483e+000  3.994300e+001
    endloop
  endfacet
  facet normal -1.000000e+000  0.000000e+000  -0.000000e+000
    outer loop
      vertex  3.000000e+001 -1.209085e+002  2.154553e+001
      vertex  3.000000e+001 -8.356483e+000  3.994300e+001
      vertex  3.000000e+001 -5.736197e+000  3.489255e+001
    endloop
  endfacet
  facet normal -1.000000e+000  0.000000e+000  -0.000000e+000
    outer loop
      vertex  3.000000e+001 -1.209085e+002  2.154553e+001
      vertex  3.000000e+001 -5.736197e+000  3.489255e+001
      vertex  3.000000e+001 -2.088119e+000  3.052626e+001
    endloop
  endfacet
  facet normal -9.999999e-001  0.000000e+000  -0.000000e+000
    outer loop
      vertex  3.000000e+001 -1.209085e+002  2.154553e+001
      vertex  3.000000e+001 -2.088119e+000  3.052626e+001
      vertex  3.000000e+001  2.415965e+000  2.704974e+001
    endloop
  endfacet
  facet normal -1.000000e+000  0.000000e+000  -0.000000e+000
    outer loop
      vertex  3.000000e+001 -1.209085e+002  2.154553e+001
      vertex  3.000000e+001  2.415965e+000  2.704974e+001
      vertex  3.000000e+001  7.563957e+000  2.462670e+001
    endloop
  endfacet
  facet normal -1.000000e+000  0.000000e+000  -0.000000e+000
    outer loop
      vertex  3.000000e+001 -1.209085e+002  2.154553e+001
      vertex  3.000000e+001  7.563957e+000  2.462670e+001
      vertex  3.000000e+001  1.311344e+001  2.337124e+001
    endloop
  endfacet
  facet normal -1.000000e+000  0.000000e+000  -0.000000e+000
    outer loop
      vertex  3.000000e+001 -1.209085e+002  2.154553e+001
      vertex  3.000000e+001  1.311344e+001  2.337124e+001
      vertex  3.000000e+001  2.909151e+001  2.154553e+001
    endloop
  endfacet
  facet normal -1.000000e+000  -0.000000e+000  -0.000000e+000
    outer loop
      vertex  3.000000e+001 -1.209085e+002  2.154553e+001
      vertex  3.000000e+001  2.909151e+001  2.154553e+001
      vertex  3.000000e+001  2.909151e+001 -1.292732e+001
    endloop
  endfacet
  facet normal -1.000000e+000  0.000000e+000  0.000000e+000
    outer loop
      vertex  3.000000e+001 -1.209085e+002  2.154553e+001
      vertex  3.000000e+001  2.909151e+001 -1.292732e+001
      vertex  3.000000e+001 -1.209085e+002 -8.823403e+000
    endloop
  endfacet
  facet normal  0.000000e+000  6.000634e-002  9.981980e-001
    outer loop
      vertex -3.000000e+001 -1.209085e+002 -8.823403e+000
      vertex  3.000000e+001 -1.209085e+002 -8.823403e+000
      vertex -3.000000e+001 -5.264043e+001 -1.292732e+001
    endloop
  endfacet
  facet normal  -0.000000e+000  6.000634e-002  9.981980e-001
    outer loop
      vertex -3.000000e+001 -5.264043e+001 -1.292732e+001
      vertex  3.000000e+001 -1.209085e+002 -8.823403e+000
      vertex  3.000000e+001 -5.264043e+001 -1.292732e+001
    endloop
  endfacet
  facet normal  0.000000e+000  1.000000e+000  -0.000000e+000
    outer loop
      vertex  3.000000e+001 -1.209085e+002  2.154553e+001
      vertex  3.000000e+001 -1.209085e+002 -8.823403e+000
      vertex -3.000000e+001 -1.209085e+002  2.154553e+001
    endloop
  endfacet
  facet normal  0.000000e+000  1.000000e+000  0.000000e+000
    outer loop
      vertex -3.000000e+001 -1.209085e+002  2.154553e+001
      vertex  3.000000e+001 -1.209085e+002 -8.823403e+000
      vertex -3.000000e+001 -1.209085e+002 -8.823403e+000
    endloop
  endfacet
  facet normal  0.000000e+000  6.002236e-001 -7.998323e-001
    outer loop
      vertex  3.000000e+001 -7.402560e+001  5.672818e+001
      vertex  3.000000e+001 -1.209085e+002  2.154553e+001
      vertex -3.000000e+001 -7.402560e+001  5.672818e+001
    endloop
  endfacet
  facet normal  0.000000e+000  6.002236e-001 -7.998323e-001
    outer loop
      vertex -3.000000e+001 -7.402560e+001  5.672818e+001
      vertex  3.000000e+001 -1.209085e+002  2.154553e+001
      vertex -3.000000e+001 -1.209085e+002  2.154553e+001
    endloop
  endfacet
  facet normal  -0.000000e+000  0.000000e+000 -9.999999e-001
    outer loop
      vertex -3.000000e+001 -9.091002e+000  5.672818e+001
      vertex  3.000000e+001 -9.091002e+000  5.672818e+001
      vertex -3.000000e+001 -7.402560e+001  5.672818e+001
    endloop
  endfacet
  facet normal  0.000000e+000  0.000000e+000 -9.999999e-001
    outer loop
      vertex -3.000000e+001 -7.402560e+001  5.672818e+001
      vertex  3.000000e+001 -9.091002e+000  5.672818e+001
      vertex  3.000000e+001 -7.402560e+001  5.672818e+001
    endloop
  endfacet
  facet normal  -0.000000e+000 -2.206541e-001 -9.753521e-001
    outer loop
      vertex -3.000000e+001  1.311344e+001  2.337124e+001
      vertex  3.000000e+001  1.311344e+001  2.337124e+001
      vertex -3.000000e+001  7.563957e+000  2.462670e+001
    endloop
  endfacet
  facet normal  0.000000e+000 -2.206541e-001 -9.753521e-001
    outer loop
      vertex -3.000000e+001  7.563957e+000  2.462670e+001
      vertex  3.000000e+001  1.311344e+001  2.337124e+001
      vertex  3.000000e+001  7.563957e+000  2.462670e+001
    endloop
  endfacet
  facet normal  -0.000000e+000 -4.258623e-001 -9.047879e-001
    outer loop
      vertex -3.000000e+001  7.563957e+000  2.462670e+001
      vertex  3.000000e+001  7.563957e+000  2.462670e+001
      vertex -3.000000e+001  2.415965e+000  2.704974e+001
    endloop
  endfacet
  facet normal  0.000000e+000 -4.258623e-001 -9.047879e-001
    outer loop
      vertex -3.000000e+001  2.415965e+000  2.704974e+001
      vertex  3.000000e+001  7.563957e+000  2.462670e+001
      vertex  3.000000e+001  2.415965e+000  2.704974e+001
    endloop
  endfacet
  facet normal  -0.000000e+000 -6.110172e-001 -7.916173e-001
    outer loop
      vertex -3.000000e+001  2.415965e+000  2.704974e+001
      vertex  3.000000e+001  2.415965e+000  2.704974e+001
      vertex -3.000000e+001 -2.088119e+000  3.052626e+001
    endloop
  endfacet
  facet normal  0.000000e+000 -6.110172e-001 -7.916173e-001
    outer loop
      vertex -3.000000e+001 -2.088119e+000  3.052626e+001
      vertex  3.000000e+001  2.415965e+000  2.704974e+001
      vertex  3.000000e+001 -2.088119e+000  3.052626e+001
    endloop
  endfacet
  facet normal  -0.000000e+000 -7.673990e-001 -6.411698e-001
    outer loop
      vertex -3.000000e+001 -2.088119e+000  3.052626e+001
      vertex  3.000000e+001 -2.088119e+000  3.052626e+001
      vertex -3.000000e+001 -5.736197e+000  3.489255e+001
    endloop
  endfacet
  facet normal  0.000000e+000 -7.673990e-001 -6.411698e-001
    outer loop
      vertex -3.000000e+001 -5.736197e+000  3.489255e+001
      vertex  3.000000e+001 -2.088119e+000  3.052626e+001
      vertex  3.000000e+001 -5.736197e+000  3.489255e+001
    endloop
  endfacet
  facet normal  -0.000000e+000 -8.876443e-001 -4.605296e-001
    outer loop
      vertex -3.000000e+001 -5.736197e+000  3.489255e+001
      vertex  3.000000e+001 -5.736197e+000  3.489255e+001
      vertex -3.000000e+001 -8.356483e+000  3.994300e+001
    endloop
  endfacet
  facet normal  0.000000e+000 -8.876443e-001 -4.605296e-001
    outer loop
      vertex -3.000000e+001 -8.356483e+000  3.994300e+001
      vertex  3.000000e+001 -5.736197e+000  3.489255e+001
      vertex  3.000000e+001 -8.356483e+000  3.994300e+001
    endloop
  endfacet
  facet normal  -0.000000e+000 -9.660906e-001 -2.582034e-001
    outer loop
      vertex -3.000000e+001 -8.356483e+000  3.994300e+001
      vertex  3.000000e+001 -8.356483e+000  3.994300e+001
      vertex -3.000000e+001 -9.825588e+000  4.543979e+001
    endloop
  endfacet
  facet normal  0.000000e+000 -9.660906e-001 -2.582034e-001
    outer loop
      vertex -3.000000e+001 -9.825588e+000  4.543979e+001
      vertex  3.000000e+001 -8.356483e+000  3.994300e+001
      vertex  3.000000e+001 -9.825588e+000  4.543979e+001
    endloop
  endfacet
  facet normal  -0.000000e+000 -9.990439e-001 -4.371811e-002
    outer loop
      vertex -3.000000e+001 -9.825588e+000  4.543979e+001
      vertex  3.000000e+001 -9.825588e+000  4.543979e+001
      vertex -3.000000e+001 -1.007433e+001  5.112407e+001
    endloop
  endfacet
  facet normal  0.000000e+000 -9.990439e-001 -4.371811e-002
    outer loop
      vertex -3.000000e+001 -1.007433e+001  5.112407e+001
      vertex  3.000000e+001 -9.825588e+000  4.543979e+001
      vertex  3.000000e+001 -1.007433e+001  5.112407e+001
    endloop
  endfacet
  facet normal  0.000000e+000 -9.849524e-001  1.728258e-001
    outer loop
      vertex -3.000000e+001 -1.007433e+001  5.112407e+001
      vertex  3.000000e+001 -1.007433e+001  5.112407e+001
      vertex -3.000000e+001 -9.091002e+000  5.672818e+001
    endloop
  endfacet
  facet normal  0.000000e+000 -9.849524e-001  1.728258e-001
    outer loop
      vertex -3.000000e+001 -9.091002e+000  5.672818e+001
      vertex  3.000000e+001 -1.007433e+001  5.112407e+001
      vertex  3.000000e+001 -9.091002e+000  5.672818e+001
    endloop
  endfacet
  facet normal  0.000000e+000 -1.135249e-001 -9.935351e-001
    outer loop
      vertex  3.000000e+001  2.909151e+001  2.154553e+001
      vertex  3.000000e+001  1.311344e+001  2.337124e+001
      vertex -3.000000e+001  2.909151e+001  2.154553e+001
    endloop
  endfacet
  facet normal  0.000000e+000 -1.135249e-001 -9.935351e-001
    outer loop
      vertex -3.000000e+001  2.909151e+001  2.154553e+001
      vertex  3.000000e+001  1.311344e+001  2.337124e+001
      vertex -3.000000e+001  1.311344e+001  2.337124e+001
    endloop
  endfacet
  facet normal  0.000000e+000 -1.000000e+000  -0.000000e+000
    outer loop
      vertex  3.000000e+001  2.909151e+001 -1.292732e+001
      vertex  3.000000e+001  2.909151e+001  2.154553e+001
      vertex -3.000000e+001  2.909151e+001 -1.292732e+001
    endloop
  endfacet
  facet normal  0.000000e+000 -1.000000e+000  0.000000e+000
    outer loop
      vertex -3.000000e+001  2.909151e+001 -1.292732e+001
      vertex  3.000000e+001  2.909151e+001  2.154553e+001
      vertex -3.000000e+001  2.909151e+001  2.154553e+001
    endloop
  endfacet
  facet normal  0.000000e+000  0.000000e+000  1.000000e+000
    outer loop
      vertex -3.000000e+001 -5.264043e+001 -1.292732e+001
      vertex  3.000000e+001 -5.264043e+001 -1.292732e+001
      vertex -3.000000e+001  2.909151e+001 -1.292732e+001
    endloop
  endfacet
  facet normal  -0.000000e+000  0.000000e+000  1.000000e+000
    outer loop
      vertex -3.000000e+001  2.909151e+001 -1.292732e+001
      vertex  3.000000e+001 -5.264043e+001 -1.292732e+001
      vertex  3.000000e+001  2.909151e+001 -1.292732e+001
    endloop
  endfacet
  facet normal  1.000000e+000  0.000000e+000  0.000000e+000
    outer loop
      vertex  1.000000e+002 -4.656940e+002 -1.034990e+002
      vertex  1.000000e+002  3.343060e+002 -1.034990e+002
      vertex  1.000000e+002 -4.656940e+002  2.200212e+002
    endloop
  endfacet
  facet normal  1.000000e+000  -0.000000e+000  0.000000e+000
    outer loop
      vertex  1.000000e+002 -4.656940e+002  2.200212e+002
      vertex  1.000000e+002  3.343060e+002 -1.034990e+002
      vertex  1.000000e+002  3.343060e+002  2.200212e+002
    endloop
  endfacet
  facet normal -1.000000e+000  0.000000e+000  0.000000e+000
    outer loop
      vertex -1.000000e+002 -4.656940e+002 -1.034990e+002
      vertex -1.000000e+002 -4.656940e+002  2.200212e+002
      vertex -1.000000e+002  3.343060e+002 -1.034990e+002
    endloop
  endfacet
  facet normal -1.000000e+000  0.000000e+000  0.000000e+000
    outer loop
      vertex -1.000000e+002  3.343060e+002 -1.034990e+002
      vertex -1.000000e+002 -4.656940e+002  2.200212e+002
      vertex -1.000000e+002  3.343060e+002  2.200212e+002
    endloop
  endfacet
  facet normal  0.000000e+000  0.000000e+000  1.000000e+000
    outer loop
      vertex  1.000000e+002 -4.656940e+002  2.200212e+002
      vertex  1.000000e+002  3.343060e+002  2.200212e+002
      vertex -1.000000e+002 -4.656940e+002  2.200212e+002
    endloop
  endfacet
  facet normal  0.000000e+000  0.000000e+000  1.000000e+000
    outer loop
      vertex -1.000000e+002 -4.656940e+002  2.200212e+002
      vertex  1.000000e+002  3.343060e+002  2.200212e+002
      vertex -1.000000e+002  3.343060e+002  2.200212e+002
    endloop
  endfacet
  facet normal  0.000000e+000  1.000000e+000  0.000000e+000
    outer loop
      vertex  1.000000e+002  3.343060e+002 -1.034990e+002
      vertex -1.000000e+002  3.343060e+002 -1.034990e+002
      vertex  1.000000e+002  3.343060e+002  2.200212e+002
    endloop
  endfacet
  facet normal  0.000000e+000  1.000000e+000  0.000000e+000
    outer loop
      vertex  1.000000e+002  3.343060e+002  2.200212e+002
      vertex -1.000000e+002  3.343060e+002 -1.034990e+002
      vertex -1.000000e+002  3.343060e+002  2.200212e+002
    endloop
  endfacet
  facet normal  0.000000e+000  0.000000e+000 -1.000000e+000
    outer loop
      vertex  1.000000e+002  3.343060e+002 -1.034990e+002
      vertex  1.000000e+002 -4.656940e+002 -1.034990e+002
      vertex -1.000000e+002  3.343060e+002 -1.034990e+002
    endloop
  endfacet
  facet normal  0.000000e+000  0.000000e+000 -1.000000e+000
    outer loop
      vertex -1.000000e+002  3.343060e+002 -1.034990e+002
      vertex  1.000000e+002 -4.656940e+002 -1.034990e+002
      vertex -1.000000e+002 -4.656940e+002 -1.034990e+002
    endloop
  endfacet
  facet normal  0.000000e+000 -1.000000e+000  0.000000e+000
    outer loop
      vertex  1.000000e+002 -4.656940e+002  2.200212e+002
      vertex -1.000000e+002 -4.656940e+002  2.200212e+002
      vertex  1.000000e+002 -4.656940e+002 -1.034990e+002
    endloop
  endfacet
  facet normal  0.000000e+000 -1.000000e+000  0.000000e+000
    outer loop
      vertex  1.000000e+002 -4.656940e+002 -1.034990e+002
      vertex -1.000000e+002 -4.656940e+002  2.200212e+002
      vertex -1.000000e+002 -4.656940e+002 -1.034990e+002
    endloop
  endfacet
endsolid car
